<?xml version="1.0" encoding="utf-8"?>
<!-- Generator: Adobe Illustrator 15.0.0, SVG Export Plug-In  -->
<!DOCTYPE svg PUBLIC "-//W3C//DTD SVG 1.1//EN" "http://www.w3.org/Graphics/SVG/1.1/DTD/svg11.dtd" [
	<!ENTITY ns_flows "http://ns.adobe.com/Flows/1.0/">
]>
<svg version="1.1"
	 xmlns="http://www.w3.org/2000/svg" xmlns:xlink="http://www.w3.org/1999/xlink" xmlns:a="http://ns.adobe.com/AdobeSVGViewerExtensions/3.0/"
	 x="0px" y="0px" width="400px" height="70px" viewBox="-2.5 -2.656 400 70"
	 overflow="visible" enable-background="new -2.5 -2.656 400 70" xml:space="preserve">
<defs>
</defs>
<path fill="#FCB918" d="M71.075,51.892c-0.192,0.074-0.322,0.005-0.521,0.084c-0.302,0.118-0.588,0.254-0.981,0.373
	c-0.104,0.074-0.208,0.141-0.316,0.209c-0.141,0.017-0.287,0.029-0.438,0.039c-0.023,0.04-0.053,0.073-0.078,0.108
	c-0.198,0.084-0.642-0.012-0.813,0.062c-0.376,0.169-0.439,0.405-0.98,0.312c-0.259,0.315-0.491,0.203-0.88,0.254
	c-0.452,0.056-1.516,0.666-1.957,0.479c-0.092,0.069-0.181,0.137-0.271,0.21c-0.373,0.112-0.556,0.062-0.811,0.249
	c0,0.079,0,0.169,0,0.248c0.157,0.056,0.283,0.174,0.476,0.208c0.069,0.012,0.393-0.083,0.479-0.108
	c0.08-0.011,1.233,0.146,1.337,0.17c0.039-0.17,0.982-0.368,1.179-0.372c0.226,0.111-0.462,0.485-0.216,0.542
	c0.429,0.101,0.826-0.288,1.104-0.402c0.326-0.13,0.834-0.011,1.122-0.101c0.162-0.052,0.36-0.199,0.478-0.249
	c0.55-0.119-0.085,0.167,0.463,0.049c0.006,0.018,1.197-0.377,1.209-0.361c-0.17,0.204-0.652,0.237-0.921,0.35
	c-0.181,0.074-0.215,0.192-0.393,0.271c-0.229,0.028-0.458,0.056-0.689,0.084c-0.138,0.068-0.277,0.14-0.415,0.208
	c-0.364,0.102-0.771,0.017-1.109,0.233c-0.1,0.102-0.208,0.203-0.312,0.31c-0.172,0.108-0.274,0.102-0.372,0.289
	c0.05,0.04,0.098,0.067,0.147,0.107c-0.009,0.03,0.353,0.431,0.347,0.458c-0.399-0.312-0.675-0.175-0.894-0.102
	c-0.222,0.068-0.3-0.097-0.393-0.125c-0.112,0-0.226,0.013-0.335,0.018c-0.423-0.091-0.822-0.079-1.064,0.337
	c0.065,0.199,0.258,0.229,0.378,0.367c-0.424,0.056-0.717-0.316-0.961-0.474c-0.006,0-0.016,0-0.02,0
	c0.029,0.169,0.058,0.344,0.083,0.521c-0.232-0.081-0.328-0.255-0.5-0.334c-0.163-0.074-0.43,0.027-0.523,0.062
	c-0.136,0.057-0.225-0.067-0.31-0.084c-0.841-0.169-0.48,0.237-0.56,0.333c-0.147-0.147-0.293-0.288-0.441-0.441
	c-0.229,0.092-0.449,0.215-0.499,0.441c0.023,0.078,0.018,0.112-0.023,0.169c-0.071-0.101-0.068-0.192-0.163-0.27
	c-0.021,0.01-0.043,0.026-0.062,0.038c-0.012,0.622,0.157,0.96,0.249,1.358c-0.006,0-0.015,0-0.023,0
	c-0.272-0.296-0.305-1.221-0.601-1.358c-0.094-0.033-0.182-0.012-0.252,0.024c-0.041,0.101-0.078,0.135-0.167,0.186
	c-0.077-0.04-0.151-0.084-0.229-0.123c-0.152,0.111-0.219,0.388-0.354,0.434c-0.151-0.262-0.262-0.347-0.604-0.373
	c-0.07,0.062-0.142,0.124-0.209,0.187c-0.198-0.057-0.17-0.097-0.379-0.041c-0.115-0.219-0.397-0.169-0.601-0.31
	c-0.118,0.062-0.47,0.165-0.582,0.141c0.012-0.05,0.026-0.107,0.038-0.163c-0.032,0-0.068,0-0.104,0
	c-0.095,0.083-0.192,0.179-0.29,0.27c0.006,0.124,0.033,0.176,0.083,0.249c-0.102,0.226-0.199,0.351-0.396,0.48
	c-0.023-0.017-0.045-0.03-0.062-0.042c-0.028-0.038-0.056-0.071-0.085-0.106c-0.028,0.013-0.056,0.017-0.082,0.023
	c-0.047,0.288-0.669,0.721-0.938,0.457c0.02-0.058,0.043-0.113,0.062-0.17c-0.117-0.062-0.169-0.209-0.251-0.311
	c-0.287,0.066-0.375,0.23-0.687,0.066c-0.015-0.075-0.024-0.148-0.041-0.226c0.05-0.069,0.073-0.142,0.142-0.192
	c0.228-0.103,0.409,0.056,0.524,0.129c0.037-0.017,0.065-0.034,0.104-0.045c-0.041-0.113-0.109-0.113-0.187-0.187
	c0-0.028,0-0.056,0-0.084c0.201-0.208,0.413-0.135,0.708-0.232c0.03-0.057,0.054-0.125,0.083-0.186
	c0.181,0.035,0.361,0.073,0.542,0.109c0.063-0.166,0.132-0.374,0.23-0.504c0.327,0.015,0.971-0.741,1.147-0.995
	c-0.008-0.027-0.014-0.05-0.025-0.068c-0.058,0.022-0.036,0.029-0.101,0.016c-0.009-0.062-0.017-0.136-0.022-0.203
	c-0.067,0-0.14,0-0.206,0c-0.461-0.202-0.249-0.547-0.359-0.898c-0.209-0.005-0.271-0.017-0.434-0.04
	c-0.035-0.034-0.069-0.074-0.107-0.108c0.045-0.576-0.154-0.174-0.434-0.418c-0.084-0.141-0.169-0.288-0.251-0.436
	c0.014-0.055,0.028-0.112,0.043-0.163c0.108,0.039,0.191,0.006,0.252-0.106c0.173,0.135,0.344,0.265,0.517,0.393
	c-0.011,0.272-0.068,0.369,0.021,0.629c0.006,0,0.015,0,0.021,0c0.146-0.017,0.293-0.027,0.437-0.04
	c0.097,0.067,0.043,0.123,0.108,0.226c0.071,0.039,0.15,0.084,0.227,0.125c0.208,0.151,0.353,0.412,0.501,0.627
	c0.32-0.222,0.36,0.175,0.542,0.332c0.014,0,0.028,0,0.042,0c0.062-0.096,2.654-0.978,2.895-1.113c0.492-0.273,1.458-0.36,1.9-0.65
	c0.344-0.215-0.89,0.283-0.605,0c0.629,0.158-0.507,0.091-0.521,0.091c-0.209-0.057,0.252-0.069-0.104,0.04
	c-0.367,0.108-0.543,0.055-0.688,0.102c-0.554,0.17-4.234,0.367-4.456,0.498c-0.318,0.033,0.393-0.572-0.421-0.6
	c1.134-0.87,3.487-2.204,4.647-3.056c12.09-8.857,15.943-16.08,16.591-17.31c0.277,0.316-4.268,6.795-4.252,7.01
	c0.038,0.53-1.568,2.118-1.698,2.496c0.029,0.136,1.421-1.186,1.449-1.055c-0.106,0.333-0.327,0.571-0.353,1.022
	c0.048,0.051,2.742-2.938,2.791-2.882c-0.286,0.612-3.509,4.033-3.961,4.48c-0.411,0.42-0.774,1.042-0.248,1.091
	c0.003,0.475-0.227,0.626-0.337,0.978c-0.051,0.165,0.083,0.312-0.019,0.48c-0.101,0.163-0.296,0.287-0.395,0.435
	c-0.257,0.385-0.343,0.86-0.586,1.232c-0.246,0.378-1.305,0.908-1.533,1.305c0.006,0.032-4.253-0.589-5.582,1.475
	c0.908-0.464,7.467-2.52,8.097-2.866c0.279-0.147,0.519-0.214,0.752-0.395c13.253-10.158,8.32-18.074,7.835-18.78
	c0.009-0.021,0.017-0.039,0.021-0.062c0.006,0,0.016,0,0.02,0c0.14,0.062,0.261,0.08,0.377,0.125
	c0.104,0.436,0.475,0.498,0.688,0.79c0.394,0.542,0.782,0.87,1.334,1.255c0.115,0.096,0.236,0.192,0.354,0.293
	c0.084,0,0.168,0,0.254,0c0.143,0.165,0.288,0.328,0.433,0.498c0.231,0.175,0.475,0.243,0.648,0.481
	c1.396,1.893,2.028,5.575,1.269,8.248c-0.462,1.655-1.484,3.125-2.35,4.344c-0.039,0-0.073,0-0.104,0
	c-0.255,0.654-0.785,1.034-1.23,1.492c-0.278,0.288-0.462,0.655-0.755,0.92c-0.136,0.091-0.277,0.182-0.416,0.271
	c-0.272,0.26-0.754,0.927-1.082,1.062c-0.197,0.084-0.384,0.035-0.546,0.124C77.921,49.107,75.149,51.096,71.075,51.892z"/>
<path fill="#FCB918" d="M48.561,27.045c0.018,0.017,0.032,0.028,0.042,0.046c-0.004,0.017-0.01,0.028-0.019,0.04
	c-0.012-0.012-0.029-0.023-0.042-0.04C48.545,27.073,48.555,27.063,48.561,27.045z"/>
<path fill="#FCB918" d="M84.893,29.298c0.016,0.012,0.031,0.029,0.043,0.046c-0.006,0-0.012,0.012-0.021,0.017
	c-0.016-0.006-0.026-0.017-0.04-0.017C84.879,29.328,84.887,29.31,84.893,29.298z"/>
<path fill="#FCB918" d="M59.295,38.034c0.031,0,0.056,0,0.087,0c0,0.022,0,0.039,0,0.062c-0.031,0-0.056,0-0.087,0
	C59.295,38.073,59.295,38.057,59.295,38.034z"/>
<path fill="#FCB918" d="M52.145,42.593c0.044,0.011,0.085,0.015,0.128,0.021c-0.007,0.041-0.011,0.074-0.019,0.109
	c-0.049-0.006-0.097-0.018-0.147-0.023C52.123,42.626,52.123,42.643,52.145,42.593z"/>
<path fill="#FCB918" d="M48.561,43.474c0.038,0.006,0.074,0.012,0.105,0.018c0.102,0.056,0.175,0.133,0.188,0.293
	c-0.005,0.016-0.013,0.026-0.021,0.039c-0.115-0.056-0.215-0.124-0.29-0.225C48.545,43.553,48.555,43.514,48.561,43.474z"/>
<path fill="#FCB918" d="M49.063,44.033c0.034,0.011,0.068,0.017,0.104,0.023c0.221,0.079,0.503,0.367,0.456,0.643
	c-0.008,0.007-0.014,0.018-0.017,0.023c-0.096-0.006-0.145-0.017-0.189-0.062C49.256,44.53,49.138,44.242,49.063,44.033z"/>
<path fill="#FCB918" d="M51.979,45.18c0.094,0.034,0.067,0.028,0.107,0.102c-0.019,0.028-0.043,0.044-0.063,0.067
	c-0.017-0.017-0.044-0.027-0.064-0.039C51.967,45.265,51.97,45.225,51.979,45.18z"/>
<path fill="#FCB918" d="M49.021,46.913c0.042,0.018,0.084,0.041,0.126,0.057c0,0.023,0,0.046,0,0.062
	c-0.016,0.012-0.027,0.017-0.042,0.023c-0.015-0.007-0.031-0.013-0.043-0.023C49.048,46.994,49.035,46.954,49.021,46.913z"/>
<path fill="#FCB918" d="M57.798,47.31c0.018,0,0.039,0,0.059,0c-0.006,0.051,0.023,0.012-0.02,0.062
	C57.823,47.35,57.812,47.333,57.798,47.31z"/>
<path fill="#FCB918" d="M54,48.102c0.029,0,0.058,0,0.085,0c0,0.016,0,0.022,0,0.04c0.006,0.032,0.014,0.074,0.021,0.1
	c-0.021,0.012-0.042,0.018-0.064,0.023c-0.019-0.012-0.042-0.029-0.062-0.04C53.989,48.179,53.997,48.141,54,48.102z"/>
<path fill="#FCB918" d="M50.545,49.015c0.222,0.03,0.414,0.222,0.499,0.397c-0.015,0.022-0.029,0.038-0.044,0.062
	c-0.013,0.012-0.027,0.017-0.039,0.021c-0.038-0.004-0.069-0.01-0.106-0.021C50.705,49.406,50.555,49.22,50.545,49.015z"/>
<path fill="#FCB918" d="M69.135,49.039c0.035,0.028,0.067,0.057,0.106,0.083c-0.057,0.006-0.11,0.012-0.171,0.017
	C69.094,49.107,69.116,49.073,69.135,49.039z"/>
<path fill="#FCB918" d="M68.986,49.202c0.022,0,0.046,0,0.064,0c-0.015,0.018-0.027,0.029-0.042,0.045
	C69.004,49.231,68.995,49.22,68.986,49.202z"/>
<path fill="#FCB918" d="M54.441,49.931c0.163,0.068,0.264,0.214,0.373,0.333c0.006,0.125,0.012,0.165-0.06,0.208
	c-0.03,0.013-0.056,0.018-0.085,0.023C54.538,50.373,54.376,50.145,54.441,49.931z"/>
<path fill="#FCB918" d="M58.898,50.016c0.023,0.023,0.044,0.047,0.065,0.062c-0.013,0.079-0.007,0.067-0.042,0.103
	c-0.013,0-0.028-0.012-0.047-0.018C58.885,50.118,58.894,50.067,58.898,50.016z"/>
<path fill="#FCB918" d="M52.693,51.332c0.111,0.052,0.149,0.097,0.205,0.208c-0.016,0.036-0.031,0.068-0.043,0.102
	c-0.077-0.01-0.061-0.004-0.104-0.044c-0.077-0.046-0.109-0.096-0.124-0.208C52.65,51.372,52.668,51.348,52.693,51.332z"/>
<path fill="#FCB918" d="M49.731,51.598c0.039,0.012,0.08,0.017,0.123,0.022c0.102,0.039,0.138,0.084,0.189,0.17
	c-0.02,0.023-0.028,0.041-0.043,0.062c-0.024,0.006-0.042,0.012-0.062,0.017c-0.084-0.056-0.169-0.118-0.252-0.187
	C49.701,51.654,49.713,51.626,49.731,51.598z"/>
<path fill="#FCB918" d="M55.503,52.287c0.128,0.051,0.184,0.26,0.21,0.401c-0.029,0.023-0.059,0.052-0.085,0.08
	c-0.058,0-0.11,0-0.167,0c0.042-0.115,0.085-0.233,0.124-0.351C55.496,52.372,55.492,52.388,55.503,52.287z"/>
<path fill="#FCB918" d="M56.003,52.333c0.018,0,0.026,0,0.045,0c-0.018,0.01-0.027,0.028-0.045,0.04
	C56.003,52.36,56.003,52.343,56.003,52.333z"/>
<path fill="#FCB918" d="M49.334,52.458c0.062,0.021,0.025,0,0.062,0.038c-0.008,0-0.015,0-0.02,0
	C49.359,52.484,49.346,52.466,49.334,52.458z"/>
<path fill="#FCB918" d="M74.052,52.79c0.13-0.006,0.224,0.006,0.294,0.041c0,0.032,0,0.074,0,0.107
	c-0.054,0.038-0.107,0.084-0.164,0.124c-0.127,0.006-0.224-0.006-0.297-0.04c0-0.007,0-0.017,0-0.023
	c0.009-0.018,0.016-0.029,0.025-0.045C73.958,52.904,74.005,52.845,74.052,52.79z"/>
<path fill="#FCB918" d="M53.546,52.976c0.168,0.017,0.268,0.129,0.224,0.294c-0.094-0.006-0.11-0.016-0.164-0.046
	c-0.024-0.039-0.057-0.078-0.081-0.125C53.531,53.061,53.537,53.021,53.546,52.976z"/>
<path fill="#FCB918" d="M52.586,53.186c0.139,0.022,0.182,0.079,0.271,0.147c0,0.039,0,0.078,0,0.124c-0.014,0-0.027,0-0.042,0
	c-0.036,0-0.067,0-0.105,0C52.647,53.372,52.598,53.333,52.586,53.186z"/>
<path fill="#FCB918" d="M51.462,53.372c0.02,0.017,0.04,0.028,0.062,0.039c-0.028,0.016-0.056,0.034-0.084,0.045
	C51.444,53.427,51.453,53.4,51.462,53.372z"/>
<path fill="#FCB918" d="M53.88,53.439c0.053,0.045,0.109,0.092,0.163,0.141c-0.014,0.028-0.024,0.057-0.043,0.085
	c0,0.012,0,0.029,0,0.041c-0.03-0.006-0.067-0.012-0.1-0.018c-0.021-0.051-0.044-0.096-0.066-0.147
	C53.852,53.508,53.862,53.468,53.88,53.439z"/>
<path fill="#FCB918" d="M52.65,53.52c0.024,0,0.054,0,0.078,0c0,0.026,0,0.055,0,0.083c-0.013,0.012-0.024,0.028-0.036,0.041
	c-0.018-0.006-0.034-0.013-0.044-0.018C52.65,53.592,52.65,53.552,52.65,53.52z"/>
<path fill="#FCB918" d="M55.086,53.542c0.146,0.046,0.235,0.096,0.294,0.227c0,0.05,0,0.095,0,0.147
	c-0.016,0.004-0.028,0.016-0.041,0.022c-0.16-0.056-0.181-0.158-0.273-0.272C55.074,53.625,55.077,53.58,55.086,53.542z"/>
<path fill="#FCB918" d="M54.376,53.604c0.01,0.028,0.016,0.051,0.021,0.085c-0.012-0.018-0.023-0.034-0.041-0.045
	C54.365,53.631,54.373,53.614,54.376,53.604z"/>
<path fill="#FCB918" d="M51.979,53.643c0.082,0.028,0.156,0.057,0.228,0.085c-0.003,0.05-0.013,0.096-0.018,0.146
	c-0.094,0.006-0.082,0.021-0.145-0.021c-0.032-0.029-0.073-0.059-0.104-0.086C51.952,53.728,51.967,53.688,51.979,53.643z"/>
<path fill="#FCB918" d="M55.713,53.875c0.077,0.034,0.023-0.012,0.062,0.062c-0.008,0-0.014,0-0.019,0
	C55.74,53.915,55.725,53.897,55.713,53.875z"/>
<path fill="#FCB918" d="M55.857,53.915c0.319,0.056,0.344,0.4,0.457,0.665c0.011,0,0.016,0,0.021,0
	c0.069-0.028,0.057-0.039,0.147-0.062c0.048,0.05,0.096,0.096,0.146,0.148c0.044,0.118,0.065,0.354,0.08,0.461
	c-0.06,0.119-0.128,0.181-0.249,0.248c-0.229-0.078-0.456-0.197-0.582-0.377c0.006-0.006,0.016-0.016,0.021-0.022
	c0.087,0.032,0.1,0.028,0.146-0.041c0.045-0.118,0.081-0.249,0.101-0.395c-0.124-0.136-0.302-0.356-0.332-0.565
	C55.828,53.953,55.843,53.937,55.857,53.915z"/>
<path fill="#FCB918" d="M64.151,54.04c0.029,0.01,0.058,0.016,0.086,0.021c0,0.03,0,0.056,0,0.085
	c-0.083,0.073-0.127,0.131-0.229,0.187c-0.018-0.017-0.032-0.029-0.047-0.045c0.015-0.046,0.029-0.097,0.047-0.142
	C64.055,54.112,64.102,54.072,64.151,54.04z"/>
<path fill="#FCB918" d="M62.487,54.23c-0.068,0.09-0.195,0.157-0.105,0.288c0.118-0.044,0.234-0.097,0.354-0.147
	c0-0.027,0-0.056,0-0.083C62.64,54.235,62.615,54.235,62.487,54.23z"/>
<path fill="#FCB918" d="M52.523,54.439c0.306-0.018,0.425,0.057,0.544,0.228c-0.012,0.1-0.029,0.197-0.086,0.292
	c-0.077-0.012-0.151-0.017-0.228-0.023c0.003,0.154,0.006,0.16-0.044,0.249c-0.131,0-0.161-0.016-0.229-0.056
	c0.009-0.214,0.097-0.174,0.248-0.192c-0.033-0.226-0.189-0.281-0.287-0.44C52.467,54.48,52.494,54.457,52.523,54.439z"/>
<path fill="#FCB918" d="M57.918,54.457c0.023,0,0.046,0,0.063,0c0.02,0.017,0.031,0.028,0.042,0.039c0,0.017,0,0.028,0,0.045
	c-0.011,0.006-0.022,0.011-0.042,0.016c-0.013,0-0.026,0-0.04,0C57.936,54.524,57.927,54.496,57.918,54.457z"/>
<path fill="#FCB918" d="M58.692,54.48c0.017,0,0.043,0,0.066,0c-0.015,0.016-0.032,0.038-0.05,0.061
	c-0.008-0.006-0.021-0.016-0.035-0.023C58.68,54.508,58.688,54.496,58.692,54.48z"/>
<path fill="#FCB918" d="M60.379,54.688c-0.059,0.018-0.123,0.041-0.187,0.062c0.015,0.075,0.009,0.063,0.043,0.103
	c0.035,0.057,0.067,0.113,0.105,0.169c0.028,0,0.053,0,0.081,0c0.094-0.106,0.342-0.163,0.397-0.293
	C60.65,54.734,60.495,54.722,60.379,54.688z"/>
<path fill="#FCB918" d="M59.548,54.936c-0.069,0.053-0.142,0.069-0.188,0.141c-0.021,0.042-0.042,0.075-0.064,0.107
	c0.017,0.029,0.031,0.059,0.044,0.085c0.075,0,0.153,0,0.228,0c0.017-0.006,0.03-0.017,0.041-0.022
	c-0.008-0.125-0.014-0.175,0.023-0.27C59.602,54.965,59.577,54.948,59.548,54.936z"/>
<path fill="#FCB918" d="M56.941,55.128c0.134,0.012,0.134,0.045,0.209,0.103c0,0.034,0,0.068,0,0.102
	c-0.062,0.102-0.039,0.102-0.127,0.085c-0.051-0.057-0.096-0.113-0.146-0.17C56.902,55.208,56.919,55.168,56.941,55.128z"/>
<path fill="#FCB918" d="M57.547,55.354c-0.051,0.057-0.057,0.057-0.166,0.063c0.013,0.062,0.024,0.124,0.038,0.187
	c0.248,0.033,0.215,0.141,0.353,0.248c0.053,0.039,0.544,0.142,0.713,0.169c-0.024-0.125-0.024-0.107,0-0.23
	c0.152,0.026,0.345,0.203,0.391,0c-0.09-0.012-0.093-0.018-0.142-0.063c0.087-0.029,0.048,0.006,0.084-0.085
	c-0.131-0.062-0.498-0.026-0.583,0.085C58.023,55.643,57.911,55.412,57.547,55.354z"/>
<path fill="#FCB918" d="M57.57,55.458c0.038,0.038,0.029,0.022,0.035,0.106c-0.034-0.011-0.067-0.016-0.102-0.022
	c0-0.006,0-0.017,0-0.023C57.526,55.496,57.547,55.479,57.57,55.458z"/>
<path fill="#FCB918" d="M57.69,55.518c0.014,0.018,0.025,0.029,0.043,0.046c-0.017,0.006-0.029,0.012-0.043,0.017
	C57.69,55.563,57.69,55.541,57.69,55.518z"/>
<path fill="#FCB918" d="M74.701,55.541c0.034,0.006,0.069,0.012,0.104,0.022c-0.006,0.042-0.015,0.08-0.023,0.125
	c-0.006,0-0.012,0-0.02,0c-0.018-0.022-0.044-0.045-0.062-0.062C74.674,55.559,74.674,55.621,74.701,55.541z"/>
<path fill="#FCB918" d="M59.088,55.688c0,0.017,0,0.04,0,0.062c0.029,0.042,0.058,0.08,0.088,0.125
	c0.064-0.006,0.137-0.012,0.206-0.022c0.062-0.041,0.08-0.055,0.104-0.148c-0.008-0.006-0.015-0.011-0.021-0.016
	C59.339,55.688,59.213,55.688,59.088,55.688z"/>
<path fill="#FCB918" d="M66.924,55.688c0.052,0.011,0.1,0.022,0.15,0.04c0,0.022,0,0.04,0,0.063
	c-0.009,0.006-0.015,0.016-0.026,0.021c-0.039-0.004-0.078-0.015-0.124-0.021C66.924,55.756,66.924,55.722,66.924,55.688z"/>
<path fill="#FCB918" d="M55.713,56.287c0.062,0.045,0.034,0.006,0.062,0.092c-0.027-0.018-0.056-0.029-0.085-0.041
	C55.698,56.32,55.704,56.304,55.713,56.287z"/>
<path fill="#FCB918" d="M62.319,56.287c-0.142,0.158-0.524,0.092-0.708,0.17c0.017,0.028,0.043,0.056,0.065,0.085
	c0.019,0,0.036,0,0.06,0c0.026-0.034,0.056-0.068,0.081-0.101c0.215,0.039,0.215,0.145,0.357-0.046
	c0.176-0.016,0.201-0.016,0.351,0.022C62.507,56.332,62.441,56.292,62.319,56.287z"/>
<path fill="#FCB918" d="M53.4,56.337c0.047,0,0.095,0.012,0.146,0.017c0.012,0.046,0.026,0.095,0.041,0.146
	c-0.015,0-0.029,0-0.041,0c-0.056,0-0.109,0-0.166,0c-0.023-0.022-0.042-0.046-0.065-0.062C53.339,56.4,53.371,56.367,53.4,56.337z"
	/>
<path fill="#FCB918" d="M62.525,56.479c0.026,0.017,0.043,0.029,0.063,0.039C62.568,56.508,62.552,56.496,62.525,56.479z"/>
<path fill="#FCB918" d="M62.82,56.479c0.011,0,0.027,0,0.043,0c-0.01,0.029-0.016,0.057-0.023,0.08
	c-0.096,0.01-0.212-0.035-0.251-0.041c0.042,0,0.085,0,0.123,0C62.789,56.512,62.761,56.536,62.82,56.479z"/>
<path fill="#FCB918" d="M62.944,56.559c0.084,0.044,0.076,0.01,0.105,0.106c-0.094-0.062-0.074-0.016-0.169-0.038
	c0-0.006,0-0.018,0-0.023c0.006-0.006,0.015-0.012,0.021-0.022C62.919,56.575,62.931,56.569,62.944,56.559z"/>
<path fill="#FCB918" d="M64.655,56.688c0.026,0.016,0.057,0.022,0.08,0.04c-0.021,0.023-0.039,0.044-0.062,0.062
	C64.64,56.74,64.643,56.76,64.655,56.688z"/>
<path fill="#FCB918" d="M64.8,56.772c0.075,0.035,0.153,0.067,0.226,0.104c-0.004,0.012-0.01,0.027-0.018,0.044
	c-0.035,0-0.068,0-0.104,0C64.872,56.869,64.835,56.818,64.8,56.772z"/>
<path fill="#FCB918" d="M63.777,56.79c0.014,0.016,0.027,0.028,0.043,0.045C63.807,56.818,63.791,56.806,63.777,56.79z"/>
<path fill="#FCB918" d="M52.916,56.835c0.026,0,0.046,0,0.064,0c0,0.022,0,0.041,0,0.062c-0.026-0.01-0.053-0.015-0.081-0.021
	C52.904,56.863,52.913,56.846,52.916,56.835z"/>
<path fill="#FCB918" d="M62.133,56.959c0.021,0,0.042,0,0.06,0c0.079,0.062,0.13,0.109,0.148,0.228
	c-0.043-0.013-0.086-0.029-0.125-0.041C62.188,57.082,62.159,57.021,62.133,56.959z"/>
<path fill="#FCB918" d="M59.837,57.038c0.022,0,0.046,0,0.066,0c0,0.038,0,0.074,0,0.107c-0.006,0.006-0.018,0.012-0.021,0.023
	c-0.015-0.012-0.029-0.018-0.046-0.023c-0.003-0.022-0.012-0.04-0.02-0.063C59.827,57.073,59.834,57.056,59.837,57.038z"/>
<path fill="#FCB918" d="M63.236,57.292c0.026,0.023,0.056,0.045,0.082,0.063c-0.013,0.012-0.026,0.029-0.038,0.038
	C63.244,57.355,63.253,57.367,63.236,57.292z"/>
<path fill="#FCB918" d="M62.82,57.355c0.018,0.012,0.043,0.029,0.061,0.038c-0.013,0.017-0.027,0.035-0.043,0.046
	C62.831,57.411,62.823,57.384,62.82,57.355z"/>
<path fill="#FCB918" d="M63.342,57.439c0.027,0,0.051,0,0.083,0c0.021,0.034,0.039,0.069,0.061,0.103
	c-0.015,0.01-0.027,0.028-0.039,0.044c-0.016-0.016-0.03-0.034-0.045-0.044c-0.025-0.023-0.058-0.04-0.083-0.063
	C63.324,57.467,63.333,57.451,63.342,57.439z"/>
<path fill="#FCB918" d="M53.667,57.937c0.057,0.011,0.113,0.011,0.169,0.022c0.111,0.072,0.08,0.152,0.021,0.248
	c-0.062-0.005-0.125-0.011-0.19-0.021c-0.03-0.023-0.067-0.057-0.101-0.08C53.6,58.049,53.637,57.993,53.667,57.937z"/>
<path fill="#FCB918" d="M52.668,58.022c0.025,0,0.042,0,0.062,0c-0.006,0.032-0.012,0.066-0.02,0.107c-0.004,0-0.014,0-0.016,0
	c-0.026,0-0.044,0-0.064,0C52.643,58.088,52.653,58.055,52.668,58.022z"/>
<path fill="#FCB918" d="M53.356,58.084c0.062,0.028,0.046,0.01,0.086,0.063c0.014,0.077,0,0.077-0.043,0.146
	c-0.061-0.006-0.114-0.012-0.171-0.022c0-0.029,0-0.053,0-0.085C53.273,58.124,53.291,58.128,53.356,58.084z"/>
<path fill="#FCB918" d="M54.918,58.106c0.024,0.006,0.048,0.018,0.062,0.022c-0.035,0.068-0.015,0.057-0.104,0.079
	C54.894,58.174,54.908,58.135,54.918,58.106z"/>
<path fill="#FCB918" d="M52.98,58.128c0.021,0,0.043,0,0.062,0c0.016,0.006,0.029,0.022,0.042,0.04
	c-0.013,0.018-0.026,0.028-0.042,0.04c-0.014,0-0.024,0-0.042,0C52.995,58.186,52.989,58.152,52.98,58.128z"/>
<path fill="#FCB918" d="M60.982,58.271c0.083,0.028,0.048,0,0.089,0.062c0.007,0.033,0.009,0.071,0.018,0.106
	c-0.032-0.006-0.067-0.017-0.106-0.022c-0.008-0.013-0.011-0.028-0.016-0.045C60.973,58.338,60.976,58.305,60.982,58.271z"/>
<path fill="#F68620" d="M40.484,50.32c-0.417,0.153-0.71,0.012-1.142,0.182c-0.661,0.265-1.288,0.564-2.152,0.826
	c-0.229,0.151-0.455,0.304-0.686,0.457c-0.32,0.028-0.639,0.06-0.961,0.089c-0.059,0.08-0.118,0.152-0.18,0.233
	c-0.436,0.174-1.405-0.034-1.783,0.135c-0.833,0.361-0.962,0.893-2.152,0.685c-0.56,0.699-1.079,0.44-1.92,0.552
	c-0.992,0.129-3.338,1.468-4.3,1.05c-0.202,0.153-0.399,0.306-0.593,0.458c-0.823,0.259-1.227,0.146-1.786,0.547
	c0,0.18,0,0.366,0,0.548c0.343,0.131,0.622,0.378,1.051,0.464c0.142,0.022,0.854-0.192,1.051-0.232
	c0.168-0.034,2.702,0.317,2.929,0.367c0.091-0.373,2.159-0.807,2.591-0.818c0.491,0.243-1.012,1.055-0.487,1.186
	c0.945,0.225,1.822-0.632,2.426-0.87c0.718-0.295,1.83-0.029,2.469-0.232c0.353-0.113,0.782-0.437,1.053-0.554
	c1.207-0.254-0.192,0.386,1.011,0.124c0.018,0.029,2.634-0.834,2.648-0.807c-0.37,0.453-1.425,0.532-2.022,0.78
	c-0.393,0.164-0.46,0.418-0.855,0.592c-0.507,0.062-1.007,0.125-1.513,0.187c-0.305,0.154-0.61,0.305-0.912,0.458
	c-0.794,0.225-1.686,0.032-2.426,0.502c-0.233,0.225-0.458,0.458-0.687,0.683c-0.388,0.237-0.611,0.227-0.825,0.639
	c0.107,0.08,0.213,0.159,0.323,0.231c-0.018,0.062,0.784,0.95,0.767,1.011c-0.885-0.683-1.479-0.383-1.955-0.231
	c-0.497,0.148-0.663-0.204-0.872-0.276c-0.243,0.016-0.485,0.034-0.732,0.045c-0.928-0.204-1.804-0.175-2.333,0.734
	c0.141,0.441,0.559,0.514,0.825,0.82c-0.933,0.113-1.573-0.701-2.104-1.05c-0.018,0-0.034,0-0.047,0
	c0.062,0.385,0.12,0.762,0.184,1.147c-0.507-0.17-0.719-0.566-1.101-0.736c-0.355-0.157-0.946,0.056-1.144,0.137
	c-0.299,0.129-0.503-0.147-0.68-0.181c-1.843-0.385-1.054,0.52-1.24,0.733c-0.318-0.322-0.642-0.642-0.958-0.959
	c-0.505,0.187-0.99,0.468-1.099,0.959c0.054,0.165,0.047,0.249-0.047,0.363c-0.163-0.221-0.147-0.424-0.363-0.593
	c-0.048,0.034-0.092,0.062-0.139,0.091c-0.021,1.362,0.354,2.107,0.549,2.971c-0.013,0-0.03,0-0.047,0
	c-0.597-0.632-0.672-2.679-1.328-2.971c-0.201-0.073-0.393-0.029-0.548,0.046c-0.082,0.218-0.175,0.304-0.363,0.411
	c-0.168-0.089-0.336-0.181-0.507-0.27c-0.327,0.242-0.472,0.846-0.773,0.956c-0.337-0.571-0.574-0.753-1.328-0.82
	c-0.153,0.134-0.305,0.276-0.457,0.411c-0.433-0.123-0.373-0.213-0.823-0.09c-0.263-0.479-0.887-0.367-1.328-0.689
	c-0.26,0.142-1.033,0.357-1.279,0.322c0.028-0.124,0.06-0.242,0.088-0.366c-0.074,0-0.152,0-0.226,0
	c-0.211,0.197-0.427,0.395-0.639,0.593c0.014,0.282,0.075,0.379,0.181,0.548c-0.218,0.497-0.44,0.768-0.87,1.056
	c-0.046-0.034-0.09-0.063-0.136-0.09c-0.062-0.079-0.121-0.153-0.183-0.232c-0.061,0.017-0.125,0.028-0.186,0.046
	c-0.104,0.633-1.474,1.593-2.059,1.005c0.045-0.117,0.094-0.242,0.14-0.36c-0.259-0.142-0.373-0.469-0.551-0.69
	c-0.637,0.13-0.817,0.492-1.507,0.136c-0.033-0.164-0.065-0.333-0.093-0.503c0.11-0.146,0.154-0.311,0.32-0.412
	c0.485-0.215,0.891,0.119,1.141,0.276c0.08-0.028,0.155-0.062,0.235-0.09c-0.096-0.248-0.255-0.254-0.416-0.414
	c0-0.061,0-0.124,0-0.18c0.447-0.469,0.91-0.312,1.557-0.509c0.059-0.137,0.124-0.271,0.184-0.412
	c0.397,0.078,0.791,0.151,1.188,0.231c0.133-0.36,0.295-0.808,0.501-1.102c0.72,0.046,2.133-1.622,2.52-2.193
	c-0.014-0.044-0.031-0.089-0.048-0.136c-0.139,0.057-0.083,0.063-0.229,0.047c-0.017-0.153-0.029-0.307-0.042-0.458
	c-0.153,0-0.309,0-0.461,0c-1.012-0.439-0.543-1.203-0.777-1.966c-0.467-0.006-0.602-0.04-0.963-0.09
	c-0.073-0.079-0.148-0.151-0.226-0.233c0.085-1.27-0.347-0.394-0.96-0.914C6.684,53.34,6.5,53.023,6.316,52.701
	c0.029-0.123,0.062-0.242,0.092-0.36c0.239,0.079,0.425,0.015,0.55-0.233c0.381,0.29,0.763,0.577,1.144,0.864
	c-0.024,0.6-0.15,0.809,0.045,1.374c0.016,0,0.03,0,0.046,0c0.325-0.029,0.645-0.056,0.964-0.091
	c0.206,0.152,0.088,0.283,0.228,0.508c0.169,0.091,0.333,0.181,0.503,0.271c0.45,0.333,0.768,0.905,1.1,1.373
	c0.697-0.486,0.789,0.39,1.187,0.734c0.035,0,0.062,0,0.091,0c0.142-0.215,5.835-2.157,6.357-2.44
	c1.068-0.587,3.195-0.79,4.172-1.423c0.752-0.486-1.952,0.611-1.328,0c1.377,0.338-1.117,0.198-1.148,0.181
	c-0.465-0.118,0.548-0.135-0.229,0.089c-0.801,0.244-1.194,0.137-1.51,0.233c-1.223,0.367-9.292,0.795-9.78,1.089
	c-0.695,0.079,0.867-1.254-0.919-1.315c2.486-1.915,7.647-4.842,10.195-6.707C44.606,27.401,53.064,11.568,54.48,8.861
	c0.617,0.688-9.356,14.915-9.324,15.388c0.077,1.165-3.445,4.651-3.734,5.479c0.062,0.29,3.121-2.615,3.185-2.327
	c-0.234,0.74-0.719,1.254-0.777,2.244c0.106,0.124,6.02-6.447,6.127-6.322c-0.625,1.349-7.697,8.858-8.691,9.847
	c-0.906,0.898-1.7,2.271-0.553,2.378c0.01,1.04-0.486,1.378-0.729,2.147c-0.11,0.367,0.178,0.683-0.046,1.052
	c-0.212,0.361-0.653,0.639-0.87,0.959c-0.557,0.847-0.751,1.888-1.276,2.702c-0.544,0.83-2.867,1.998-3.376,2.857
	c0.018,0.079-9.335-1.288-12.244,3.236c1.989-1.005,16.384-5.523,17.768-6.274c0.61-0.333,1.136-0.482,1.65-0.871
	c29.09-22.3,18.263-39.672,17.195-41.214C58.8,0.092,58.815,0.046,58.829,0c0.016,0,0.032,0,0.044,0
	c0.306,0.141,0.568,0.174,0.829,0.278c0.223,0.949,1.034,1.083,1.509,1.734c0.862,1.191,1.711,1.916,2.927,2.746
	c0.26,0.213,0.518,0.429,0.778,0.643c0.184,0,0.364,0,0.548,0c0.32,0.362,0.64,0.729,0.961,1.095c0.5,0.392,1.037,0.539,1.416,1.053
	c3.061,4.158,4.457,12.242,2.794,18.118c-1.025,3.614-3.27,6.852-5.171,9.513c-0.076,0-0.151,0-0.226,0
	c-0.552,1.446-1.721,2.283-2.703,3.294c-0.606,0.62-1.005,1.423-1.646,2.012c-0.304,0.198-0.609,0.395-0.917,0.593
	c-0.598,0.582-1.652,2.027-2.374,2.334c-0.432,0.181-0.839,0.074-1.191,0.276C55.509,44.207,49.437,48.563,40.484,50.32z"/>
<path fill="#F68620" d="M11.346,40.259c0.046,0,0.092,0,0.137,0c-0.021,0.118,0.047,0.021-0.045,0.135
	C11.409,40.349,11.375,40.305,11.346,40.259z"/>
<path fill="#F68620" d="M3.02,41.999c0.062,0,0.124,0,0.181,0c0,0.029,0,0.057,0,0.085c0.017,0.08,0.038,0.151,0.05,0.231
	c-0.05,0.018-0.093,0.029-0.14,0.045c-0.047-0.028-0.092-0.056-0.137-0.089C2.991,42.174,3.005,42.084,3.02,41.999z"/>
<path fill="#F68620" d="M36.229,44.056c0.079,0.057,0.153,0.119,0.229,0.181c-0.12,0.016-0.24,0.034-0.364,0.045
	C36.141,44.207,36.185,44.129,36.229,44.056z"/>
<path fill="#F68620" d="M35.911,44.423c0.046,0,0.094,0,0.142,0c-0.036,0.028-0.062,0.057-0.096,0.09
	C35.942,44.48,35.929,44.451,35.911,44.423z"/>
<path fill="#F68620" d="M3.982,46.021c0.359,0.146,0.58,0.47,0.819,0.735c0.017,0.267,0.021,0.35-0.13,0.458
	c-0.064,0.011-0.126,0.028-0.189,0.045C4.191,46.982,3.838,46.479,3.982,46.021z"/>
<path fill="#F68620" d="M13.773,46.204c0.044,0.045,0.089,0.089,0.136,0.133c-0.029,0.171-0.017,0.142-0.092,0.234
	c-0.031-0.017-0.063-0.029-0.089-0.046C13.739,46.417,13.754,46.309,13.773,46.204z"/>
<path fill="#F68620" d="M0.139,49.084c0.243,0.124,0.332,0.214,0.453,0.458c-0.027,0.078-0.059,0.152-0.089,0.23
	c-0.165-0.027-0.136-0.017-0.229-0.089C0.112,49.575,0.038,49.462,0,49.226C0.045,49.175,0.093,49.128,0.139,49.084z"/>
<path fill="#F68620" d="M6.313,51.191c0.284,0.108,0.401,0.56,0.461,0.87c-0.062,0.058-0.124,0.119-0.187,0.181
	c-0.119,0-0.245,0-0.366,0c0.092-0.26,0.184-0.52,0.275-0.774C6.298,51.366,6.288,51.406,6.313,51.191z"/>
<path fill="#F68620" d="M7.412,51.281c0.031,0,0.06,0,0.093,0c-0.033,0.029-0.062,0.062-0.093,0.09
	C7.412,51.344,7.412,51.31,7.412,51.281z"/>
<path fill="#F68620" d="M47.026,52.287c0.274-0.012,0.484,0.016,0.642,0.097c0,0.074,0,0.151,0,0.225
	c-0.121,0.091-0.243,0.181-0.367,0.271c-0.273,0.012-0.483-0.012-0.639-0.091c0-0.01,0-0.026,0-0.044
	c0.018-0.028,0.032-0.063,0.043-0.093C46.814,52.535,46.916,52.412,47.026,52.287z"/>
<path fill="#F68620" d="M2.015,52.7c0.371,0.04,0.598,0.275,0.502,0.639c-0.206-0.006-0.248-0.029-0.362-0.091
	c-0.063-0.09-0.122-0.181-0.182-0.278C1.982,52.88,1.997,52.79,2.015,52.7z"/>
<path fill="#F68620" d="M2.745,53.706c0.124,0.106,0.246,0.208,0.366,0.316c-0.029,0.062-0.06,0.124-0.092,0.187
	c0,0.026,0,0.062,0,0.088c-0.077-0.01-0.15-0.026-0.231-0.045c-0.044-0.108-0.089-0.213-0.136-0.316
	C2.683,53.857,2.718,53.779,2.745,53.706z"/>
<path fill="#F68620" d="M0.045,53.893c0.062,0,0.124,0,0.187,0c0,0.055,0,0.118,0,0.179c-0.031,0.029-0.062,0.057-0.093,0.091
	c-0.031-0.017-0.062-0.034-0.094-0.046C0.045,54.04,0.045,53.965,0.045,53.893z"/>
<path fill="#F68620" d="M5.396,53.937c0.326,0.103,0.513,0.214,0.645,0.502c0,0.108,0,0.216,0,0.322
	c-0.029,0.012-0.062,0.029-0.093,0.046c-0.339-0.119-0.392-0.356-0.596-0.599C5.37,54.116,5.386,54.022,5.396,53.937z"/>
<path fill="#F68620" d="M3.841,54.072c0.018,0.057,0.034,0.119,0.048,0.181c-0.03-0.028-0.059-0.062-0.09-0.09
	C3.815,54.128,3.83,54.102,3.841,54.072z"/>
<path fill="#F68620" d="M6.774,54.667c0.164,0.082,0.05-0.023,0.134,0.14c-0.015,0-0.029,0-0.044,0
	C6.836,54.761,6.802,54.709,6.774,54.667z"/>
<path fill="#F68620" d="M7.094,54.761c0.697,0.113,0.751,0.876,1.005,1.464c0.014,0,0.03,0,0.045,0
	c0.155-0.068,0.118-0.096,0.323-0.142c0.104,0.108,0.21,0.215,0.319,0.323c0.101,0.265,0.142,0.78,0.184,1.005
	c-0.136,0.278-0.28,0.408-0.551,0.548c-0.494-0.17-1.004-0.429-1.28-0.82c0.016-0.016,0.03-0.034,0.045-0.046
	c0.193,0.058,0.22,0.052,0.323-0.095c0.099-0.253,0.187-0.549,0.226-0.87C7.466,55.841,7.071,55.354,7,54.896
	C7.031,54.852,7.062,54.807,7.094,54.761z"/>
<path fill="#F68620" d="M25.298,55.033c0.062,0.018,0.125,0.034,0.183,0.045c0,0.062,0,0.124,0,0.181
	c-0.177,0.165-0.269,0.293-0.506,0.413c-0.026-0.029-0.059-0.056-0.086-0.091c0.027-0.101,0.06-0.214,0.086-0.321
	C25.084,55.184,25.194,55.108,25.298,55.033z"/>
<path fill="#F68620" d="M21.64,55.445c-0.142,0.209-0.426,0.358-0.228,0.638c0.26-0.107,0.521-0.213,0.774-0.321
	c0-0.058,0-0.119,0-0.181C21.977,55.474,21.93,55.462,21.64,55.445z"/>
<path fill="#F68620" d="M11.624,55.948c0.043,0,0.087,0,0.137,0c0.026,0.028,0.059,0.062,0.089,0.09c0,0.033,0,0.062,0,0.09
	c-0.03,0.016-0.062,0.028-0.089,0.051c-0.032,0-0.062,0-0.094,0C11.648,56.101,11.636,56.021,11.624,55.948z"/>
<path fill="#F68620" d="M13.311,55.994c0.05,0,0.093,0,0.142,0c-0.036,0.045-0.062,0.089-0.092,0.135
	c-0.032-0.01-0.064-0.028-0.092-0.046C13.285,56.055,13.296,56.021,13.311,55.994z"/>
<path fill="#F68620" d="M17.019,56.45c-0.139,0.046-0.273,0.098-0.411,0.137c0.027,0.171,0.022,0.141,0.091,0.232
	c0.078,0.124,0.15,0.242,0.23,0.361c0.063,0,0.12,0,0.181,0c0.206-0.237,0.748-0.361,0.869-0.633
	C17.611,56.553,17.27,56.524,17.019,56.45z"/>
<path fill="#F68620" d="M15.188,56.999c-0.154,0.119-0.307,0.147-0.409,0.323c-0.046,0.072-0.096,0.151-0.142,0.226
	c0.039,0.062,0.063,0.124,0.096,0.186c0.167,0,0.335,0,0.502,0c0.03-0.018,0.062-0.026,0.09-0.044
	c-0.021-0.285-0.036-0.396,0.047-0.595C15.312,57.062,15.251,57.032,15.188,56.999z"/>
<path fill="#F68620" d="M9.469,57.411c0.29,0.035,0.29,0.104,0.461,0.227c0,0.078,0,0.158,0,0.232
	c-0.137,0.214-0.09,0.219-0.274,0.179c-0.108-0.118-0.216-0.236-0.322-0.36C9.381,57.59,9.425,57.502,9.469,57.411z"/>
<path fill="#F68620" d="M10.796,57.914c-0.115,0.124-0.118,0.124-0.363,0.135c0.033,0.137,0.062,0.278,0.089,0.415
	c0.548,0.072,0.471,0.315,0.78,0.552c0.113,0.079,1.184,0.305,1.554,0.367c-0.057-0.277-0.057-0.232,0-0.508
	c0.333,0.067,0.763,0.439,0.873,0c-0.207-0.023-0.216-0.034-0.326-0.137c0.196-0.074,0.116,0.006,0.185-0.187
	c-0.283-0.141-1.091-0.061-1.28,0.187C11.844,58.552,11.598,58.043,10.796,57.914z"/>
<path fill="#F68620" d="M10.841,58.141c0.102,0.095,0.063,0.045,0.099,0.231c-0.08-0.018-0.154-0.034-0.234-0.045
	c0-0.017,0-0.034,0-0.046C10.751,58.235,10.796,58.186,10.841,58.141z"/>
<path fill="#F68620" d="M11.115,58.281c0.034,0.029,0.062,0.057,0.093,0.089c-0.03,0.017-0.059,0.029-0.093,0.045
	C11.115,58.372,11.115,58.327,11.115,58.281z"/>
<path fill="#F68620" d="M48.445,58.327c0.076,0.011,0.153,0.026,0.228,0.045c-0.012,0.091-0.026,0.18-0.045,0.278
	c-0.017,0-0.029,0-0.044,0c-0.048-0.046-0.095-0.098-0.14-0.142C48.383,58.366,48.389,58.497,48.445,58.327z"/>
<path fill="#F68620" d="M14.183,58.65c0,0.044,0,0.089,0,0.133c0.059,0.091,0.121,0.183,0.184,0.278
	c0.153-0.017,0.309-0.034,0.457-0.045c0.147-0.096,0.172-0.129,0.228-0.322c-0.015-0.018-0.029-0.034-0.05-0.044
	C14.73,58.65,14.457,58.65,14.183,58.65z"/>
<path fill="#F68620" d="M31.383,58.65c0.104,0.026,0.212,0.062,0.319,0.089c0,0.044,0,0.09,0,0.136
	c-0.012,0.018-0.031,0.034-0.046,0.045c-0.09-0.012-0.182-0.027-0.273-0.045C31.383,58.801,31.383,58.72,31.383,58.65z"/>
<path fill="#F68620" d="M6.774,59.977c0.137,0.083,0.071,0.004,0.134,0.181c-0.06-0.029-0.124-0.062-0.181-0.091
	C6.739,60.034,6.76,60.004,6.774,59.977z"/>
<path fill="#F68620" d="M21.271,59.977c-0.317,0.331-1.153,0.187-1.552,0.36c0.045,0.063,0.087,0.124,0.137,0.181
	c0.044,0,0.092,0,0.137,0c0.059-0.074,0.119-0.147,0.181-0.226c0.474,0.103,0.474,0.327,0.777-0.09
	c0.387-0.046,0.443-0.046,0.78,0.045C21.688,60.062,21.539,59.981,21.271,59.977z"/>
<path fill="#F68620" d="M1.694,60.066c0.104,0.013,0.216,0.029,0.32,0.045c0.029,0.109,0.059,0.215,0.091,0.322
	c-0.032,0-0.062,0-0.091,0c-0.122,0-0.243,0-0.364,0c-0.049-0.05-0.094-0.095-0.139-0.14C1.573,60.22,1.632,60.14,1.694,60.066z"/>
<path fill="#F68620" d="M21.731,60.383c0.047,0.034,0.09,0.062,0.137,0.09C21.821,60.445,21.778,60.417,21.731,60.383z"/>
<path fill="#F68620" d="M22.373,60.383c0.028,0,0.059,0,0.09,0c-0.017,0.062-0.031,0.124-0.046,0.181
	c-0.215,0.016-0.464-0.085-0.549-0.091c0.091,0,0.183,0,0.271,0C22.298,60.462,22.24,60.507,22.373,60.383z"/>
<path fill="#F68620" d="M22.643,60.564c0.187,0.084,0.162,0.016,0.233,0.233c-0.21-0.13-0.165-0.046-0.367-0.091
	c0-0.012,0-0.034,0-0.044c0.016-0.013,0.027-0.036,0.046-0.047C22.583,60.598,22.615,60.58,22.643,60.564z"/>
<path fill="#F68620" d="M26.397,60.841c0.06,0.033,0.121,0.061,0.184,0.095c-0.047,0.047-0.093,0.092-0.14,0.137
	C26.362,60.953,26.372,60.993,26.397,60.841z"/>
<path fill="#F68620" d="M26.716,61.027c0.168,0.073,0.337,0.154,0.503,0.226c-0.014,0.034-0.031,0.062-0.045,0.091
	c-0.077,0-0.151,0-0.229,0C26.869,61.236,26.794,61.134,26.716,61.027z"/>
<path fill="#F68620" d="M24.476,61.071c0.032,0.029,0.059,0.063,0.091,0.093C24.536,61.134,24.508,61.1,24.476,61.071z"/>
<path fill="#F68620" d="M0.642,61.164c0.048,0,0.09,0,0.137,0c0,0.044,0,0.088,0,0.135c-0.062-0.012-0.121-0.029-0.185-0.047
	C0.612,61.225,0.626,61.191,0.642,61.164z"/>
<path fill="#F68620" d="M20.861,61.439c0.046,0,0.09,0,0.137,0c0.171,0.129,0.279,0.233,0.32,0.498
	c-0.092-0.029-0.183-0.059-0.272-0.091C20.985,61.71,20.923,61.575,20.861,61.439z"/>
<path fill="#F68620" d="M15.83,61.621c0.046,0,0.089,0,0.135,0c0,0.071,0,0.151,0,0.226c-0.016,0.016-0.027,0.032-0.046,0.05
	c-0.027-0.018-0.06-0.034-0.089-0.05c-0.016-0.045-0.031-0.085-0.047-0.137C15.799,61.684,15.815,61.648,15.83,61.621z"/>
<path fill="#F68620" d="M23.284,62.168c0.062,0.044,0.12,0.095,0.184,0.142c-0.028,0.026-0.063,0.056-0.093,0.089
	C23.305,62.311,23.319,62.332,23.284,62.168z"/>
<path fill="#F68620" d="M22.373,62.311c0.045,0.027,0.09,0.056,0.136,0.089c-0.032,0.029-0.062,0.057-0.091,0.091
	C22.401,62.428,22.386,62.367,22.373,62.311z"/>
<path fill="#F68620" d="M23.518,62.49c0.061,0,0.117,0,0.18,0c0.045,0.074,0.092,0.152,0.14,0.226
	c-0.036,0.035-0.063,0.062-0.095,0.096c-0.029-0.035-0.059-0.062-0.091-0.096c-0.062-0.045-0.122-0.09-0.184-0.136
	C23.482,62.552,23.5,62.518,23.518,62.49z"/>
<path fill="#F68620" d="M2.29,63.586c0.119,0.016,0.243,0.028,0.362,0.045c0.242,0.163,0.178,0.338,0.047,0.554
	c-0.139-0.018-0.276-0.036-0.409-0.05c-0.079-0.057-0.151-0.119-0.229-0.181C2.139,63.83,2.211,63.71,2.29,63.586z"/>
<path fill="#F68620" d="M0.093,63.767c0.046,0,0.094,0,0.139,0c-0.017,0.079-0.031,0.157-0.045,0.232c-0.018,0-0.035,0-0.048,0
	c-0.046,0-0.094,0-0.139,0C0.032,63.924,0.062,63.846,0.093,63.767z"/>
<path fill="#F68620" d="M1.6,63.908c0.137,0.056,0.106,0.029,0.186,0.137c0.031,0.175-0.003,0.175-0.091,0.322
	c-0.121-0.018-0.246-0.028-0.366-0.046c0-0.062,0-0.123,0-0.185C1.413,63.987,1.469,63.999,1.6,63.908z"/>
<path fill="#F68620" d="M5.036,63.953c0.041,0.016,0.088,0.028,0.134,0.046c-0.083,0.157-0.037,0.124-0.229,0.187
	C4.975,64.106,5,64.027,5.036,63.953z"/>
<path fill="#F68620" d="M0.778,63.999c0.05,0,0.095,0,0.141,0c0.028,0.028,0.062,0.062,0.091,0.089
	c-0.029,0.035-0.062,0.062-0.091,0.097c-0.033,0-0.063,0-0.09,0C0.812,64.123,0.793,64.061,0.778,63.999z"/>
<path fill="#F68620" d="M18.344,64.32c0.182,0.063,0.093,0,0.185,0.137c0.014,0.079,0.03,0.151,0.047,0.231
	c-0.079-0.017-0.155-0.033-0.232-0.045c-0.014-0.035-0.028-0.063-0.043-0.097C18.315,64.473,18.33,64.394,18.344,64.32z"/>
<rect x="104.295" y="22.189" fill="none" width="290.705" height="20.309"/>
<path fill="#162E4D" d="M119.109,25.327c-1.145-0.646-2.405-0.763-3.667-0.763c-3.608,0-6.073,2.728-6.073,8.185
	c0,5.075,2.377,8.918,7.1,8.918c0.939,0,2.377-0.176,3.374-1.115c0.733-0.704,1.408-1.702,1.937-2.787
	c0.088,0,0.439,0.147,0.469,0.265c-0.323,1.231-1.408,3.461-2.112,3.96c-0.938,0.293-2.376,0.646-4.37,0.646
	c-6.426,0-10.093-3.315-10.093-9.564c0-3.197,1.438-6.249,4.576-7.921c1.556-0.821,3.551-1.291,6.044-1.291
	c1.819,0,4.107,0.381,5.574,0.499c-0.206,0.792-0.528,3.051-0.558,4.459c-0.088,0.117-0.587,0.117-0.587,0.029
	C120.518,27.087,120.224,25.973,119.109,25.327z"/>
<path fill="#162E4D" d="M126.208,39.937c-1.73-1.877-2.465-4.489-2.465-6.777c0-2.171,0.587-4.02,1.644-5.515
	c1.643-2.318,4.518-3.785,7.832-3.785c5.984,0,9.123,4.166,9.123,9.094c0,2.259-0.557,4.312-1.73,5.926
	c-1.73,2.494-4.576,3.755-7.686,3.755C130.109,42.636,127.733,41.609,126.208,39.937z M136.681,40.699
	c1.496-1.438,2.083-4.224,2.083-6.777c0-2.904-0.851-6.307-2.904-8.038c-0.939-0.821-2.024-1.232-3.374-1.232
	c-0.938,0-1.878,0.293-2.522,0.792c-1.849,1.32-2.582,3.902-2.582,6.865c0,2.875,0.852,6.483,3.14,8.331
	c0.909,0.734,2.082,1.174,3.402,1.174C135.009,41.814,136.035,41.345,136.681,40.699z"/>
<path fill="#162E4D" d="M144.366,24.3c0.498,0,1.877,0.088,3.755,0.088c2.024,0,3.168-0.088,3.843-0.088
	c0.089,0.059,0.089,0.44,0,0.499c-0.498,0.059-0.792,0.117-1.145,0.176c-0.615,0.146-0.88,0.558-0.938,1.555
	c-0.088,2.112-0.029,6.777,0,8.303c0.029,1.73,0.177,2.64,0.558,3.579c0.616,1.819,2.2,2.875,4.693,2.875
	c2.259,0,4.372-0.968,4.694-4.899c0.206-2.141,0.206-6.747,0.088-9.329c-0.029-1.555-0.469-1.877-1.32-2.054
	c-0.41-0.088-0.763-0.176-1.232-0.205c-0.087-0.059-0.087-0.411,0-0.499c0.646,0,1.614,0.088,3.052,0.088
	c1.467,0,2.229-0.088,2.904-0.088c0.059,0.059,0.088,0.411,0,0.499c-0.41,0.088-0.822,0.146-1.057,0.235
	c-0.762,0.205-0.968,0.586-1.026,2.083c-0.088,3.051-0.147,6.601-0.293,8.508c-0.353,5.163-3.14,7.011-7.129,7.011
	c-4.724,0-6.66-2.17-7.07-5.163c-0.322-1.966-0.206-6.748-0.234-10.943c-0.029-0.851-0.235-1.349-0.91-1.525l-1.261-0.205
	C144.277,24.741,144.308,24.359,144.366,24.3z"/>
<path fill="#162E4D" d="M164.078,24.3c0.705,0,2.523,0.088,3.462,0.088c1.497,0,2.905-0.059,5.046-0.059
	c3.521,0,5.104,1.789,5.104,4.312c0,2.318-1.584,3.785-3.402,4.488c-0.059,0.03-0.059,0.147-0.029,0.176
	c0.674,1.203,3.432,5.457,4.928,7.129c0.616,0.674,1.145,1.026,1.614,1.026c0.528,0,0.732-0.205,1.114-1.114
	c1.584-3.755,4.812-12.585,5.486-14.639c0.146-0.469,0.293-1.027,0.352-1.378c0.264,0.029,0.704,0.059,1.115,0.059
	c0.557,0,0.851-0.029,1.085-0.059c0.059,0.352,0.235,0.909,0.352,1.378c0.793,2.376,3.639,10.972,4.519,13.407
	c0.821,2.142,1.027,2.317,2.934,2.582c0.029,0.059,0,0.44-0.059,0.499c-0.733,0-2.201-0.088-3.696-0.088
	c-2.112,0-2.963,0.059-3.902,0.088c-0.029-0.088-0.059-0.411,0-0.499c0.528-0.117,1.086-0.206,1.408-0.322
	c0.382-0.176,0.353-0.499,0.293-0.705c-0.381-1.261-1.29-3.873-1.789-5.251c0-0.059-0.117-0.205-0.205-0.205
	c-0.294-0.029-1.056-0.029-2.112-0.029c-1.379,0-2.171,0-2.523,0.029c-0.087,0-0.234,0.117-0.264,0.234
	c-0.498,1.438-1.584,4.283-1.584,4.958c0,0.381-0.059,0.851,0.792,1.056c0.382,0.088,0.733,0.147,1.35,0.235
	c0.059,0.059,0,0.47-0.059,0.499c-0.88,0-1.878-0.088-3.315-0.088c-0.997,0-2.64,0.088-3.578,0.088c-1.351,0-2.26-0.44-3.052-1.438
	c-1.115-1.35-3.08-4.694-4.077-6.249c-0.177-0.352-0.44-0.616-0.821-0.616c-0.177,0-0.793,0.029-0.998,0.029
	c-0.059,0-0.117,0.118-0.117,0.176c0,1.76,0.029,4.372,0.059,5.809c0.059,1.173,0.205,1.408,0.88,1.554
	c0.382,0.088,0.676,0.118,1.379,0.235c0.088,0.088,0.059,0.381-0.029,0.499c-1.086,0-2.494-0.088-3.872-0.088
	c-2.318,0-3.345,0.088-3.727,0.088c-0.088-0.059-0.088-0.44,0-0.469c0.587-0.088,0.881-0.118,1.204-0.206
	c0.645-0.146,0.821-0.528,0.851-1.613c0.059-0.852,0.088-5.428,0.088-7.158c0-2.464,0-4.899-0.059-6.308
	c-0.029-0.88-0.265-1.32-0.88-1.467c-0.353-0.059-0.822-0.146-1.292-0.176C163.991,24.741,164.02,24.33,164.078,24.3z
	 M169.711,25.181c-0.117,0.059-0.176,0.293-0.176,0.411c-0.059,0.528-0.088,2.523-0.088,7.334c0,0.059,0.088,0.146,0.146,0.146
	c1.232,0.118,2.816,0.029,3.345-0.234c0.792-0.381,1.525-1.203,1.525-3.344c0-2.523-1.35-4.43-4.019-4.43
	C170.269,25.063,170.005,25.063,169.711,25.181z M185.465,33.922c-0.029,0.118,0.029,0.147,0.059,0.176
	c0.264,0.029,0.88,0.029,1.907,0.029c0.851,0,1.789,0,2.082-0.029c0.03,0,0.089-0.088,0.089-0.147
	c-0.528-1.73-1.467-4.664-1.966-6.131c-0.029,0-0.117-0.029-0.117,0C186.932,29.464,185.905,32.661,185.465,33.922z"/>
<path fill="#162E4D" d="M214.684,41.521c-1.057,0.323-3.932,1.115-6.483,1.115c-6.396,0-10.092-2.934-10.092-9.505
	c0-3.843,1.937-6.835,5.104-8.214c1.584-0.675,3.168-1.056,5.721-1.056c2.317,0,4.283,0.528,5.603,0.646
	c-0.234,0.88-0.498,3.021-0.498,4.459c-0.06,0.118-0.528,0.146-0.616,0.059c-0.176-1.936-0.499-2.816-1.262-3.344
	c-1.027-0.763-2.347-1.085-4.106-1.085c-3.462,0-6.249,2.347-6.249,8.156c0,5.544,2.669,9.182,6.864,9.182
	c0.646,0,1.262-0.087,1.525-0.205c0.411-0.177,0.616-0.499,0.675-1.086c0.089-0.821,0.147-2.61,0.06-3.579
	c-0.089-1.233-0.265-1.526-1.145-1.673c-0.499-0.117-0.88-0.146-1.438-0.175c-0.089-0.088-0.089-0.469,0-0.528
	c0.968-0.029,2.641,0.088,4.225,0.088c1.76,0,2.493-0.059,3.08-0.088c0.059,0.059,0.059,0.44-0.029,0.499
	c-0.294,0.059-0.499,0.117-0.733,0.205c-0.616,0.176-0.763,0.353-0.763,2.054c-0.029,1.115-0.059,2.288,0.029,2.934
	c0.059,0.44,0.146,0.499,0.587,0.704C214.771,41.14,214.742,41.491,214.684,41.521z"/>
<path fill="#162E4D" d="M217.117,24.3c0.763,0,2.317,0.088,3.784,0.088h5.457c1.114,0,2.552,0,3.345-0.118
	c0.028,0,0.058,0.059,0.058,0.088c-0.205,0.851-0.41,2.757-0.498,4.077c-0.088,0.059-0.411,0.088-0.499,0.03
	c-0.117-1.056-0.353-1.819-0.557-2.229c-0.235-0.558-0.558-0.822-1.233-0.88c-0.615-0.059-3.637-0.088-4.106,0
	c-0.176,0.029-0.293,0.323-0.293,0.44c-0.029,1.672-0.029,5.075-0.029,6.542c0,0.117,0.088,0.234,0.117,0.234
	c0.792,0,3.432,0.029,4.282-0.029c0.764-0.059,1.057-0.44,1.263-1.203c0.117-0.293,0.146-0.558,0.233-0.91
	c0.089-0.059,0.47-0.059,0.499,0c-0.029,0.675-0.146,1.643-0.146,2.669c0,0.88,0.059,1.848,0.059,2.641
	c-0.059,0.058-0.44,0.087-0.499,0.03c-0.146-0.734-0.146-0.734-0.234-1.057c-0.146-0.44-0.381-0.968-1.174-1.027
	c-0.615-0.059-3.402-0.088-4.253-0.059c-0.088,0-0.146,0.176-0.146,0.235c0,1.408,0,4.488,0.029,6.219
	c0,0.528,0.264,0.91,0.615,0.968c0.587,0.118,1.79,0.176,3.286,0.176c1.849,0,2.142-0.235,2.641-0.705
	c0.558-0.557,1.173-1.76,1.643-2.874c0.059-0.029,0.382,0.087,0.439,0.175c-0.058,0.587-0.733,3.198-1.114,4.02
	c-0.176,0.323-0.353,0.381-1.673,0.381c-2.347,0-4.518-0.118-7.48-0.118c-1.672,0-3.051,0.088-4.488,0.088
	c-0.059-0.088-0.059-0.44,0-0.499c0.821-0.088,1.467-0.147,1.907-0.264c0.615-0.176,0.851-0.557,0.88-1.643
	c0.088-1.261,0.088-4.43,0.088-7.51c0-2.494,0-5.017-0.088-5.867c-0.059-0.909-0.117-1.173-0.821-1.408
	c-0.382-0.088-0.852-0.176-1.32-0.234C217.029,24.711,217.059,24.359,217.117,24.3z"/>
<path fill="#162E4D" d="M235.041,39.937c-1.73-1.877-2.465-4.489-2.465-6.777c0-2.171,0.587-4.02,1.644-5.515
	c1.643-2.318,4.518-3.785,7.832-3.785c5.984,0,9.124,4.166,9.124,9.094c0,2.259-0.558,4.312-1.731,5.926
	c-1.73,2.494-4.576,3.755-7.686,3.755C238.942,42.636,236.566,41.609,235.041,39.937z M245.514,40.699
	c1.496-1.438,2.083-4.224,2.083-6.777c0-2.904-0.851-6.307-2.904-8.038c-0.939-0.821-2.023-1.232-3.374-1.232
	c-0.938,0-1.878,0.293-2.522,0.792c-1.849,1.32-2.582,3.902-2.582,6.865c0,2.875,0.852,6.483,3.14,8.331
	c0.909,0.734,2.082,1.174,3.402,1.174C243.842,41.814,244.868,41.345,245.514,40.699z"/>
<path fill="#162E4D" d="M253.198,24.3c0.499,0,1.878,0.088,3.755,0.088c2.024,0,3.168-0.088,3.844-0.088
	c0.088,0.059,0.088,0.44,0,0.499c-0.499,0.059-0.792,0.117-1.145,0.176c-0.616,0.146-0.88,0.558-0.939,1.555
	c-0.087,2.112-0.029,6.777,0,8.303c0.03,1.73,0.177,2.64,0.558,3.579c0.616,1.819,2.2,2.875,4.694,2.875
	c2.259,0,4.371-0.968,4.693-4.899c0.206-2.141,0.206-6.747,0.089-9.329c-0.03-1.555-0.47-1.877-1.32-2.054
	c-0.411-0.088-0.764-0.176-1.232-0.205c-0.088-0.059-0.088-0.411,0-0.499c0.646,0,1.613,0.088,3.051,0.088
	c1.467,0,2.229-0.088,2.904-0.088c0.06,0.059,0.088,0.411,0,0.499c-0.41,0.088-0.821,0.146-1.056,0.235
	c-0.763,0.205-0.969,0.586-1.027,2.083c-0.088,3.051-0.146,6.601-0.293,8.508c-0.353,5.163-3.14,7.011-7.129,7.011
	c-4.723,0-6.659-2.17-7.07-5.163c-0.322-1.966-0.205-6.748-0.234-10.943c-0.029-0.851-0.234-1.349-0.91-1.525l-1.261-0.205
	C253.11,24.741,253.14,24.359,253.198,24.3z"/>
<path fill="#162E4D" d="M275.67,41.198c0.763,0.528,1.702,0.733,2.787,0.733c1.613,0,2.757-1.055,2.757-2.846
	c0-1.76-0.938-2.787-3.314-4.341c-2.846-1.849-4.342-3.257-4.342-5.838c0-3.227,2.641-5.046,5.838-5.046
	c1.937,0,3.14,0.381,4.254,0.44c-0.176,1.085-0.382,2.259-0.499,3.96c-0.059,0.088-0.439,0.117-0.499,0.059
	c-0.175-1.848-0.498-2.699-1.29-3.198c-0.675-0.469-1.35-0.616-2.259-0.616c-1.819,0-2.904,1.262-2.904,2.875
	c0,1.35,0.646,2.317,1.818,3.197c1.145,0.88,2.054,1.35,3.168,2.083c1.819,1.232,2.993,2.553,2.993,4.576
	c0,3.14-2.406,5.398-6.513,5.398c-1.73,0-3.55-0.499-4.078-0.851c-0.293-0.469-0.616-3.345-0.704-4.225
	c0.059-0.117,0.44-0.206,0.528-0.117C273.969,39.497,274.613,40.465,275.67,41.198z"/>
<path fill="#162E4D" d="M293.388,41.198c0.764,0.528,1.702,0.733,2.787,0.733c1.614,0,2.758-1.055,2.758-2.846
	c0-1.76-0.938-2.787-3.315-4.341c-2.845-1.849-4.341-3.257-4.341-5.838c0-3.227,2.64-5.046,5.837-5.046
	c1.937,0,3.14,0.381,4.254,0.44c-0.175,1.085-0.381,2.259-0.498,3.96c-0.06,0.088-0.44,0.117-0.499,0.059
	c-0.176-1.848-0.499-2.699-1.291-3.198c-0.674-0.469-1.349-0.616-2.259-0.616c-1.818,0-2.904,1.262-2.904,2.875
	c0,1.35,0.646,2.317,1.819,3.197c1.144,0.88,2.054,1.35,3.168,2.083c1.819,1.232,2.992,2.553,2.992,4.576
	c0,3.14-2.405,5.398-6.513,5.398c-1.73,0-3.549-0.499-4.077-0.851c-0.294-0.469-0.616-3.345-0.704-4.225
	c0.059-0.117,0.439-0.206,0.527-0.117C291.687,39.497,292.332,40.465,293.388,41.198z"/>
<path fill="#162E4D" d="M305.327,39.409c1.554-3.755,4.399-11.676,5.074-13.729c0.146-0.469,0.294-0.998,0.353-1.349
	c0.264,0.029,0.704,0.059,1.115,0.059c0.557,0,0.851-0.029,1.085-0.059c0.059,0.352,0.234,0.88,0.353,1.378
	c0.791,2.347,3.637,10.972,4.518,13.407c0.82,2.142,1.026,2.317,2.934,2.582c0.029,0.059,0,0.44-0.059,0.499
	c-0.734,0-2.201-0.088-3.696-0.088c-2.113,0-2.964,0.059-3.902,0.088c-0.029-0.088-0.059-0.411,0-0.499
	c0.528-0.117,1.086-0.206,1.408-0.322c0.381-0.176,0.352-0.499,0.293-0.705c-0.381-1.261-1.291-3.873-1.789-5.251
	c0-0.059-0.118-0.205-0.205-0.205c-0.294-0.029-1.057-0.029-2.112-0.029c-1.379,0-2.142,0-2.494,0.029
	c-0.088,0-0.234,0.117-0.264,0.234c-0.528,1.438-1.614,4.283-1.614,4.958c0,0.381-0.029,0.851,0.822,1.026
	c0.41,0.088,0.733,0.206,1.32,0.264c0.059,0.059,0,0.47-0.06,0.499c-0.88,0-2.054-0.088-3.344-0.088
	c-1.173,0-1.966,0.088-2.816,0.088c-0.088-0.059-0.088-0.44,0-0.499C304.183,41.433,304.563,41.257,305.327,39.409z M310.52,27.792
	c-0.587,1.643-1.585,4.87-2.024,6.131c-0.029,0.118,0.029,0.147,0.029,0.176c0.293,0.029,0.88,0.029,1.907,0.029
	c0.851,0,1.789,0,2.082-0.029c0.029,0,0.088-0.088,0.088-0.147c-0.528-1.73-1.467-4.693-1.966-6.16
	C310.606,27.792,310.52,27.762,310.52,27.792z"/>
<path fill="#162E4D" d="M320.785,24.3c0.939,0,2.143,0.088,3.873,0.088c2.112,0,3.11-0.088,3.608-0.088
	c0.059,0.059,0.088,0.411,0.029,0.499c-0.527,0.059-1.026,0.146-1.291,0.235c-0.616,0.234-0.674,0.527-0.733,1.672
	c-0.059,0.939-0.059,3.785-0.059,6.308c0,4.048,0,5.867,0.059,6.894c0.029,0.645,0.06,1.378,0.91,1.554
	c0.381,0.118,0.851,0.176,1.349,0.235c0.089,0.059,0.029,0.47-0.029,0.499c-1.261-0.029-2.2-0.088-3.638-0.088
	c-2.259,0-2.846,0.088-4.078,0.088c-0.087-0.059-0.087-0.411,0-0.499c0.528-0.059,0.939-0.117,1.263-0.206
	c0.674-0.175,0.821-0.499,0.88-1.554c0.059-1.174,0.088-4.225,0.088-7.422c0-2.757,0-4.812-0.088-6.161
	c-0.059-0.646-0.177-1.115-0.734-1.291c-0.352-0.118-0.703-0.176-1.408-0.264C320.698,24.741,320.727,24.359,320.785,24.3z"/>
<path fill="#162E4D" d="M329.968,24.3c0.821,0,1.496,0.088,3.696,0.088c1.79,0,2.992-0.059,3.726-0.088
	c0.059,0.059,0.088,0.44,0,0.499c-0.646,0.088-0.88,0.117-1.203,0.235c-0.646,0.205-0.703,0.557-0.732,1.349
	c-0.029,0.586-0.029,3.521-0.06,6.161c-0.029,2.757,0,6.601,0.06,7.568c0.029,0.499,0.205,0.821,0.528,0.88
	c0.645,0.176,2.933,0.235,4.077,0.176c0.587,0,1.026-0.147,1.613-0.763c0.587-0.587,1.525-2.083,2.054-3.374
	c0.088-0.088,0.469,0,0.499,0.117c-0.147,0.91-0.969,3.901-1.497,4.723c-0.146,0.235-0.469,0.353-1.789,0.353
	c-1.966,0-5.369-0.118-7.246-0.118c-1.438,0-2.758,0.088-3.96,0.088c-0.089-0.059-0.089-0.44,0-0.499
	c0.821-0.117,1.085-0.117,1.496-0.235c0.557-0.146,0.763-0.469,0.821-1.32c0.059-0.704,0.146-2.699,0.146-7.862
	c0-3.227,0-4.84-0.059-5.808c-0.029-0.822-0.088-1.232-0.909-1.467c-0.353-0.088-0.822-0.146-1.291-0.205
	C329.88,24.741,329.908,24.33,329.968,24.3z"/>
<path fill="#162E4D" d="M345.017,24.3c0.938,0,2.142,0.088,3.872,0.088c2.112,0,3.109-0.088,3.608-0.088
	c0.059,0.059,0.088,0.411,0.029,0.499c-0.528,0.059-1.026,0.146-1.291,0.235c-0.616,0.234-0.674,0.527-0.732,1.672
	c-0.06,0.939-0.06,3.785-0.06,6.308c0,4.048,0,5.867,0.06,6.894c0.029,0.645,0.059,1.378,0.909,1.554
	c0.381,0.118,0.851,0.176,1.35,0.235c0.088,0.059,0.029,0.47-0.029,0.499c-1.262-0.029-2.2-0.088-3.638-0.088
	c-2.259,0-2.846,0.088-4.078,0.088c-0.088-0.059-0.088-0.411,0-0.499c0.527-0.059,0.938-0.117,1.262-0.206
	c0.674-0.175,0.821-0.499,0.88-1.554c0.059-1.174,0.088-4.225,0.088-7.422c0-2.757,0-4.812-0.088-6.161
	c-0.059-0.646-0.177-1.115-0.733-1.291c-0.353-0.118-0.704-0.176-1.408-0.264C344.929,24.741,344.958,24.359,345.017,24.3z"/>
<path fill="#162E4D" d="M353.699,24.3c0.881-0.029,2.494,0.088,3.697,0.088c0.792,0,1.291-0.029,1.524-0.059
	c0.118,0.322,0.382,0.704,1.027,1.525c2.436,3.139,7.833,9.974,9.623,12.175c0.058,0,0.029-0.03,0.058-0.03
	c0.029-3.638,0.088-9.681-0.117-11.294c-0.117-0.968-0.352-1.379-1.203-1.643c-0.469-0.118-0.88-0.206-1.672-0.264
	c-0.059-0.088-0.029-0.44,0.029-0.499c0.852,0,2.171,0.088,3.55,0.088c1.027,0,2.436-0.088,2.816-0.088
	c0.088,0.088,0.088,0.44,0,0.499c-0.47,0.088-0.821,0.117-1.144,0.235c-0.822,0.264-0.998,0.821-1.057,1.701
	c-0.176,2.669-0.205,7.892-0.235,11.588c0,1.291,0.03,2.963,0.03,3.902c-0.44-0.029-1.643-0.029-2.229,0.029
	c-1.232-1.877-9.651-12.732-10.854-14.346c-0.029-0.059-0.118-0.029-0.118,0.029c-0.058,3.081-0.028,10.356,0.029,11.705
	c0.089,1.262,0.47,1.643,1.263,1.819c0.439,0.088,0.938,0.147,1.554,0.235c0.059,0.059,0.059,0.44-0.029,0.499
	c-0.615,0-1.906-0.088-3.285-0.088c-1.731,0-2.699,0.088-3.257,0.088c-0.058-0.088-0.058-0.44,0-0.499
	c0.616-0.088,1.057-0.117,1.438-0.235c0.616-0.176,0.939-0.528,1.057-1.76c0.146-1.408,0.265-6.718,0.293-12.585
	c0-0.675-0.381-1.496-0.968-1.819s-1.085-0.44-1.877-0.499C353.612,24.741,353.642,24.359,353.699,24.3z"/>
<path fill="#162E4D" d="M391.22,41.521c-1.057,0.323-3.932,1.115-6.483,1.115c-6.396,0-10.092-2.934-10.092-9.505
	c0-3.843,1.937-6.835,5.104-8.214c1.584-0.675,3.168-1.056,5.721-1.056c2.317,0,4.283,0.528,5.604,0.646
	c-0.234,0.88-0.499,3.021-0.499,4.459c-0.059,0.118-0.528,0.146-0.616,0.059c-0.176-1.936-0.499-2.816-1.262-3.344
	c-1.026-0.763-2.347-1.085-4.106-1.085c-3.462,0-6.249,2.347-6.249,8.156c0,5.544,2.669,9.182,6.865,9.182
	c0.645,0,1.261-0.087,1.524-0.205c0.411-0.177,0.617-0.499,0.676-1.086c0.088-0.821,0.146-2.61,0.059-3.579
	c-0.088-1.233-0.265-1.526-1.145-1.673c-0.499-0.117-0.88-0.146-1.438-0.175c-0.088-0.088-0.088-0.469,0-0.528
	c0.968-0.029,2.641,0.088,4.225,0.088c1.76,0,2.493-0.059,3.08-0.088c0.059,0.059,0.059,0.44-0.029,0.499
	c-0.294,0.059-0.498,0.117-0.733,0.205c-0.615,0.176-0.763,0.353-0.763,2.054c-0.029,1.115-0.059,2.288,0.029,2.934
	c0.059,0.44,0.147,0.499,0.587,0.704C391.308,41.14,391.278,41.491,391.22,41.521z"/>
</svg>
